<svg width="21" height="20" viewBox="0 0 21 20" fill="none" xmlns="http://www.w3.org/2000/svg">
<path d="M14.6639 1.39184C13.4319 0.775825 11.9945 0.433594 10.4887 0.433594C5.21836 0.433594 0.90625 4.74571 0.90625 10.0161C0.90625 13.8491 3.16498 17.1345 6.38195 18.7087C7.61398 19.3248 9.05135 19.667 10.5572 19.667C15.8275 19.667 20.1397 15.3549 20.1397 10.0845C20.1397 6.18308 17.8809 2.89766 14.6639 1.39184ZM15.0062 13.9175C15.1431 14.0544 15.1431 14.2597 15.0062 14.3966C14.9377 14.4651 14.8693 14.5335 14.8008 14.5335C14.7324 14.5335 14.6639 14.5335 14.5955 14.4651L11.9261 11.7957L10.5572 19.5985L9.25669 11.7957L6.58729 14.4651C6.51884 14.5335 6.4504 14.5335 6.38195 14.5335C6.31351 14.5335 6.24506 14.5335 6.17661 14.4651C6.03972 14.3282 6.03972 14.1228 6.17661 13.986L8.84602 11.3165L1.18003 9.94762L8.98291 8.64715L6.24506 5.90929C6.10817 5.7724 6.10817 5.56706 6.24506 5.43017C6.38195 5.29328 6.58729 5.29328 6.72418 5.43017L9.46203 8.16802L10.831 0.50204L12.1314 8.16802L14.8693 5.43017C15.0062 5.29328 15.2115 5.29328 15.3484 5.43017C15.4853 5.56706 15.4853 5.7724 15.3484 5.90929L12.5421 8.71559L20.345 10.0845L12.679 11.385L15.0062 13.9175Z" fill="#42B6E6"/>
</svg>
